<svg width="1200" height="320" viewBox="0 0 1200 320" xmlns="http://www.w3.org/2000/svg">
  <defs>
    <linearGradient id="metalBlue" x1="0%" y1="0%" x2="0%" y2="100%">
      <stop offset="0%" stop-color="#E0F2FE"/>
      <stop offset="50%" stop-color="#7DD3FC"/>
      <stop offset="100%" stop-color="#38BDF8"/>
    </linearGradient>
    
    <!-- Subtle background gradient for better contrast -->
    <linearGradient id="bgGradient" x1="0%" y1="0%" x2="100%" y2="100%">
      <stop offset="0%" stop-color="#F8FAFC"/>
      <stop offset="100%" stop-color="#E2E8F0"/>
    </linearGradient>
    
    <!-- Icon background gradient -->
    <linearGradient id="iconBg" x1="0%" y1="0%" x2="0%" y2="100%">
      <stop offset="0%" stop-color="#0F172A"/>
      <stop offset="100%" stop-color="#1E293B"/>
    </linearGradient>
  </defs>
  
  <!-- Background -->
  <rect width="1200" height="320" fill="url(#bgGradient)"/>
  
  <!-- Icon -->
  <rect x="40" y="56" width="208" height="208" rx="48" fill="url(#iconBg)"/>
  <rect x="92" y="104" width="104" height="28" rx="8" fill="#38BDF8"/>
  <rect x="84" y="140" width="120" height="28" rx="8" fill="#0EA5E9"/>
  <rect x="76" y="176" width="136" height="28" rx="8" fill="#0284C7"/>
  <path d="M108 200 V120 L132 144 L156 120 V200"
        fill="none"
        stroke="url(#metalBlue)"
        stroke-width="10"
        stroke-linecap="round"
        stroke-linejoin="round"/>
  <path d="M172 132
           C188 120, 212 120, 212 136
           C212 152, 172 150, 172 166
           C172 182, 200 184, 216 172"
        fill="none"
        stroke="url(#metalBlue)"
        stroke-width="10"
        stroke-linecap="round"/>
  
  <!-- Wordmark -->
  <text x="280" y="190"
        font-size="96"
        font-family="Inter, Segoe UI, Roboto, sans-serif"
        font-weight="600"
        fill="#0F172A">
    MindStack
  </text>
</svg>